<svg width="1000" height="1000" viewBox="0 0 1000 1000" fill="none" xmlns="http://www.w3.org/2000/svg">
<path d="M780.933 797.17H854.487V907.501H780.933V797.17Z" fill="#216CC2"/>
<path d="M854.486 907.502H891.263L854.486 944.279V907.502Z" fill="#216CC2"/>
<rect x="854.486" y="833.946" width="36.777" height="73.5541" fill="#216CC2"/>
<rect x="744.156" y="907.502" width="110.331" height="36.777" fill="#216CC2"/>
<path d="M744.156 833.947L780.933 797.17V833.947H744.156Z" fill="#216CC2"/>
<rect x="744.156" y="833.946" width="36.777" height="73.5541" fill="#216CC2"/>
<rect width="35.7143" height="107.143" transform="matrix(-1 0 0 1 696.429 796.429)" fill="#216CC2"/>
<rect width="267.857" height="35.7143" transform="matrix(-1 0 0 1 660.714 832.143)" fill="#216CC2"/>
<path d="M660.714 867.857H625L660.714 903.571V867.857Z" fill="#216CC2"/>
<path d="M589.286 832.143V796.429H660.714V832.143H589.286Z" fill="#216CC2"/>
<path d="M553.572 832.143L589.286 796.429V832.143H553.572Z" fill="#216CC2"/>
<path d="M214.566 797.17H288.12V907.501H214.566V797.17Z" fill="#216CC2"/>
<path d="M288.12 907.5H324.897L288.12 944.278V907.5Z" fill="#216CC2"/>
<rect x="288.12" y="797.17" width="36.777" height="110.331" fill="#216CC2"/>
<rect x="251.343" y="907.5" width="36.777" height="36.777" fill="#216CC2"/>
<path d="M177.789 833.947L214.566 797.17V833.947H177.789Z" fill="#216CC2"/>
<rect x="177.789" y="833.946" width="36.777" height="73.5541" fill="#216CC2"/>
<path d="M836.098 53.5713H909.652V163.902H836.098V53.5713Z" fill="#216CC2"/>
<path d="M909.651 163.902H946.428L909.651 200.679V163.902Z" fill="#216CC2"/>
<rect x="909.651" y="53.5713" width="36.777" height="110.331" fill="#216CC2"/>
<path d="M799.321 163.902H850.808V553.738H799.321V163.902Z" fill="#216CC2"/>
<path d="M880.23 163.902H909.652V329.398H880.23V163.902Z" fill="#216CC2"/>
<path d="M880.23 329.4H909.652L880.23 362.499V329.4Z" fill="#216CC2"/>
<path d="M799.321 90.3483L836.098 53.5713V90.3483H799.321Z" fill="#216CC2"/>
<rect x="799.321" y="90.3496" width="36.777" height="73.5541" fill="#216CC2"/>
<rect x="850.808" y="163.902" width="29.4216" height="345.704" fill="#216CC2"/>
<path d="M850.808 509.607H880.23L850.808 553.739V509.607Z" fill="#216CC2"/>
<path d="M218.968 268.537H397.466H725.872V430.356H218.968V268.537Z" fill="#216CC2"/>
<path d="M218.968 584.82H397.466H725.872V684.118H218.968V584.82Z" fill="#216CC2"/>
<path d="M218.968 684.117H678.561V720.894H218.968V684.117Z" fill="#216CC2"/>
<path d="M218.968 492.942H303.443C303.443 492.942 305.133 489.267 262.05 537.043C218.968 584.819 218.968 584.819 218.968 584.819V492.942Z" fill="#216CC2"/>
<rect x="50" y="349.447" width="168.968" height="209.629" fill="#216CC2"/>
<rect x="127.726" y="268.537" width="91.2428" height="80.9094" fill="#216CC2"/>
<path d="M50 349.447L127.725 268.537V349.447H50Z" fill="#216CC2"/>
<path d="M50 559.075H218.968V720.894L50 559.075Z" fill="#216CC2"/>
<rect x="218.968" y="430.357" width="439.317" height="62.5209" fill="#216CC2"/>
<path d="M658.285 430.357H725.872L658.285 492.878V430.357Z" fill="#216CC2"/>
<path d="M678.562 684.117H725.873L688.7 720.894H678.562V684.117Z" fill="#216CC2"/>
</svg>
